<?xml version="1.0" standalone="no"?>
<!DOCTYPE svg PUBLIC "-//W3C//DTD SVG 20010904//EN"
 "http://www.w3.org/TR/2001/REC-SVG-20010904/DTD/svg10.dtd">
<svg version="1.0" xmlns="http://www.w3.org/2000/svg"
 width="1500.000000pt" height="1500.000000pt" viewBox="0 0 1500.000000 1500.000000"
 preserveAspectRatio="xMidYMid meet">

<g transform="translate(0.000000,1500.000000) scale(0.100000,-0.100000)"
fill="#000000" stroke="none">
<path d="M8173 10594 c-18 -9 -41 -31 -52 -48 -32 -51 -132 -461 -130 -526 2
-40 -16 -134 -69 -350 -39 -162 -92 -387 -118 -500 -25 -113 -48 -213 -51
-222 -2 -9 -21 -22 -41 -29 -20 -6 -150 -54 -289 -105 -138 -52 -260 -94 -271
-94 -49 0 -966 -329 -1242 -445 -96 -41 -294 -121 -440 -179 -146 -57 -303
-121 -350 -141 -105 -45 -460 -168 -467 -161 -9 9 69 340 84 358 27 30 101
357 153 668 17 102 39 210 49 240 11 30 22 89 26 130 3 41 21 215 40 385 38
346 64 659 68 812 2 89 0 105 -19 130 -11 15 -39 34 -61 42 -35 13 -46 13 -78
0 -66 -25 -77 -51 -87 -196 -16 -254 -39 -504 -74 -818 -19 -176 -37 -360 -39
-410 -5 -138 -77 -545 -141 -800 -14 -55 -24 -115 -22 -134 3 -19 -18 -135
-46 -260 l-51 -226 -160 -57 c-88 -32 -251 -89 -362 -128 l-202 -69 -43 19
c-24 11 -56 20 -72 20 -32 0 -267 -91 -377 -146 -133 -66 -172 -171 -104 -275
27 -42 95 -79 145 -79 18 0 90 24 159 53 69 30 157 66 195 82 79 33 124 67
141 109 12 27 29 35 256 113 134 46 275 95 312 108 60 21 67 22 63 7 -3 -9
-35 -156 -71 -327 -63 -294 -76 -349 -124 -540 -34 -132 -88 -409 -136 -697
-45 -270 -46 -272 -27 -298 41 -54 92 -63 141 -22 20 15 29 54 71 302 27 157
67 373 90 480 23 107 45 220 49 250 15 107 194 925 205 937 6 6 110 45 231 86
121 42 263 94 315 117 52 23 239 100 415 170 176 70 388 157 470 193 158 68
694 266 980 362 94 31 184 65 200 75 32 20 79 39 329 131 88 32 161 57 163 55
2 -2 -1 -25 -7 -50 -7 -34 -7 -58 1 -84 9 -32 1 -87 -55 -392 -83 -452 -112
-627 -181 -1090 -30 -206 -62 -390 -71 -409 -8 -19 -19 -82 -24 -140 -6 -58
-19 -187 -30 -286 -10 -99 -21 -231 -22 -293 l-3 -113 33 -30 c51 -46 119 -34
150 26 5 11 13 65 17 120 3 55 17 203 31 328 13 125 24 260 24 300 -1 40 -1
83 0 97 1 86 154 1035 245 1524 46 249 59 303 79 326 16 20 30 61 47 144 l23
116 411 134 c225 74 421 134 435 134 14 0 124 25 245 55 121 31 282 67 358 81
118 22 144 24 181 14 40 -11 51 -9 118 16 176 67 209 76 284 76 41 0 74 -2 74
-5 0 -2 -27 -46 -60 -96 -33 -50 -60 -94 -60 -98 0 -13 -208 -193 -252 -218
-24 -14 -82 -40 -129 -58 -102 -39 -222 -98 -264 -130 -17 -12 -45 -26 -63
-30 -18 -4 -48 -22 -67 -41 -81 -80 -63 -204 37 -255 39 -20 53 -21 217 -16
235 6 429 41 501 91 93 64 145 55 166 -27 13 -51 11 -59 -65 -269 -12 -32 -21
-68 -21 -81 0 -35 -136 -276 -199 -351 -30 -36 -79 -82 -109 -101 -79 -53
-132 -111 -174 -190 -20 -38 -55 -87 -77 -108 -46 -44 -46 -43 -65 -212 -8
-71 -30 -202 -47 -290 -30 -149 -33 -177 -36 -398 -3 -225 -4 -242 -28 -308
-14 -38 -36 -101 -50 -139 -22 -60 -24 -76 -15 -109 13 -48 52 -88 101 -102
32 -10 46 -9 84 5 24 10 53 30 63 44 31 44 103 240 118 321 8 42 19 92 24 111
5 19 11 114 14 210 3 144 10 202 35 330 18 85 38 212 46 282 18 160 55 244
138 309 101 80 241 258 322 410 43 81 70 119 97 138 47 33 66 68 123 225 57
160 64 221 37 336 -11 47 -23 103 -27 125 -19 110 -76 156 -189 155 -39 -1
-100 4 -135 12 l-65 13 63 53 c34 28 70 52 79 52 42 0 85 44 166 167 105 161
112 180 97 286 -24 165 -39 199 -103 233 -40 21 -117 18 -156 -6 -28 -17 -43
-19 -120 -14 -70 5 -103 3 -170 -14 -91 -23 -278 -95 -302 -116 -8 -8 -80 -26
-159 -40 -234 -43 -578 -132 -646 -167 -72 -37 -729 -250 -733 -238 -5 13 58
258 74 290 7 15 45 154 84 310 52 206 77 290 92 306 21 23 44 98 114 380 41
164 38 196 -21 253 -30 29 -43 34 -92 37 -40 3 -68 -1 -90 -13z"/>
</g>
</svg>
