<svg xmlns="http://www.w3.org/2000/svg" xmlns:xlink="http://www.w3.org/1999/xlink" viewBox="0 0 664 292" width="664" height="292"><path d="M 278.762,102.109 C 278.281,112.043 277.859,111.982 276.957,121.855" stroke-width="3.667" stroke="black" fill="none" stroke-linecap="round"></path><path d="M 276.957,121.855 C 275.694,128.622 276.038,128.666 274.277,135.355" stroke-width="3.192" stroke="black" fill="none" stroke-linecap="round"></path><path d="M 274.277,135.355 C 271.595,147.088 271.800,147.129 269.168,158.871" stroke-width="2.534" stroke="black" fill="none" stroke-linecap="round"></path><path d="M 269.168,158.871 C 267.500,166.207 267.654,166.220 266.395,173.621" stroke-width="2.781" stroke="black" fill="none" stroke-linecap="round"></path><path d="M 327.914,101.902 C 327.121,105.024 327.125,105.025 326.336,108.148" stroke-width="4.703" stroke="black" fill="none" stroke-linecap="round"></path><path d="M 326.336,108.148 C 325.074,113.012 325.111,113.021 323.895,117.895" stroke-width="3.754" stroke="black" fill="none" stroke-linecap="round"></path><path d="M 323.895,117.895 C 322.351,123.343 322.568,123.385 321.324,128.895" stroke-width="3.422" stroke="black" fill="none" stroke-linecap="round"></path><path d="M 321.324,128.895 C 318.538,143.675 318.593,143.663 316.379,158.535" stroke-width="2.382" stroke="black" fill="none" stroke-linecap="round"></path><path d="M 316.379,158.535 C 316.055,164.053 315.585,163.995 315.418,169.535" stroke-width="2.974" stroke="black" fill="none" stroke-linecap="round"></path><path d="M 253.770,150.863 C 256.215,149.667 256.268,149.803 258.766,148.742" stroke-width="5.323" stroke="black" fill="none" stroke-linecap="round"></path><path d="M 258.766,148.742 C 269.303,145.369 269.153,144.976 279.645,141.480" stroke-width="2.919" stroke="black" fill="none" stroke-linecap="round"></path><path d="M 279.645,141.480 C 287.569,137.976 287.744,138.435 295.648,134.875" stroke-width="2.825" stroke="black" fill="none" stroke-linecap="round"></path><path d="M 295.648,134.875 C 303.639,131.998 303.575,131.833 311.656,129.195" stroke-width="2.757" stroke="black" fill="none" stroke-linecap="round"></path><path d="M 311.656,129.195 C 323.834,124.437 323.960,124.894 336.289,120.668" stroke-width="2.358" stroke="black" fill="none" stroke-linecap="round"></path><path d="M 336.289,120.668 C 342.396,119.260 342.276,118.856 348.539,118.035" stroke-width="2.864" stroke="black" fill="none" stroke-linecap="round"></path><path d="M 348.539,118.035 C 355.302,115.206 352.957,117.154 357.410,116.457" stroke-width="3.814" stroke="black" fill="none" stroke-linecap="round"></path><path d="M 357.410,116.457 C 357.437,120.024 358.824,117.296 355.582,122.215" stroke-width="4.843" stroke="black" fill="none" stroke-linecap="round"></path><path d="M 355.582,122.215 C 351.874,125.022 352.732,125.581 348.000,127.570" stroke-width="3.932" stroke="black" fill="none" stroke-linecap="round"></path><path d="M 348.000,127.570 C 342.705,129.870 345.770,129.037 343.375,130.246" stroke-width="4.127" stroke="black" fill="none" stroke-linecap="round"></path><path d="M 343.375,130.246 C 347.361,129.846 344.379,130.810 351.348,129.449" stroke-width="4.816" stroke="black" fill="none" stroke-linecap="round"></path><path d="M 351.348,129.449 C 356.231,127.256 354.344,129.151 357.340,128.855" stroke-width="4.281" stroke="black" fill="none" stroke-linecap="round"></path><path d="M 357.340,128.855 C 358.024,133.311 358.843,131.024 356.570,136.984" stroke-width="4.840" stroke="black" fill="none" stroke-linecap="round"></path><path d="M 356.570,136.984 C 353.798,141.132 354.795,141.471 350.883,145.176" stroke-width="3.788" stroke="black" fill="none" stroke-linecap="round"></path><path d="M 350.883,145.176 C 348.109,147.053 349.198,147.513 347.371,149.746" stroke-width="4.068" stroke="black" fill="none" stroke-linecap="round"></path><path d="M 347.371,149.746 C 346.981,156.564 345.631,156.094 345.926,163.258" stroke-width="4.649" stroke="black" fill="none" stroke-linecap="round"></path><path d="M 345.926,163.258 C 345.601,166.494 345.443,166.318 344.297,169.254" stroke-width="4.265" stroke="black" fill="none" stroke-linecap="round"></path></svg>